<?xml version="1.0" encoding="UTF-8"?><svg id="Livello_1" xmlns="http://www.w3.org/2000/svg" viewBox="0 0 1268.71 301.47"><defs><style>.cls-1{fill:#fff;}.cls-2{stroke:#e6332a;stroke-miterlimit:10;}.cls-2,.cls-3{fill:#e94f23;}.cls-4{fill:#3c3c3b;}</style></defs><g><path class="cls-3" d="M371.2,52.76c0-22.33-18.11-40.44-40.44-40.44-17.81,0-32.93,11.52-38.32,27.52-8.01-1.98-16.38-3.04-25-3.04s-16.99,1.06-25,3.04c-5.39-15.99-20.51-27.52-38.32-27.52-22.33,0-40.44,18.11-40.44,40.44,0,13.19,6.32,24.9,16.09,32.29-10.19,16.05-16.09,35.09-16.09,55.51h207.52c0-20.42-5.9-39.46-16.09-55.51,9.77-7.38,16.09-19.1,16.09-32.29Z"/><circle class="cls-1" cx="206.24" cy="55.42" r="36.72"/><path class="cls-1" d="M366.41,55.42c0,20.28-16.44,36.72-36.71,36.72s-36.72-16.44-36.72-36.72,16.44-36.72,36.72-36.72,36.71,16.44,36.71,36.72Z"/><path class="cls-3" d="M354.03,43.26c0,6.72-5.45,12.17-12.17,12.17s-12.17-5.45-12.17-12.17,5.45-12.17,12.17-12.17,12.17,5.45,12.17,12.17Z"/><path class="cls-3" d="M230.58,43.26c0,6.72-5.45,12.17-12.17,12.17s-12.17-5.45-12.17-12.17,5.45-12.17,12.17-12.17,12.17,5.45,12.17,12.17Z"/></g><path class="cls-3" d="M1267.58,171.48v-14.27H0v14.27H43.24c1.14,7,4.16,13.43,8.6,18.8l-25.63,26.97c-1.89-.58-3.9-.9-5.98-.9-11.17,0-20.22,9.05-20.22,20.22s9.05,20.22,20.22,20.22,20.22-9.05,20.22-20.22c0-2.38-.43-4.66-1.19-6.79l26.86-28.26c3.01,1.49,6.22,2.66,9.59,3.47v42.5c-11.11,3.59-19.15,14.02-19.15,26.33,0,15.28,12.39,27.67,27.67,27.67s27.67-12.39,27.67-27.67c0-11.91-7.53-22.07-18.09-25.97v-42.14c3.95-.61,7.71-1.71,11.23-3.23l27.81,27.1c-.8,2.18-1.26,4.52-1.26,6.98,0,11.17,9.05,20.22,20.22,20.22s20.22-9.05,20.22-20.22-9.05-20.22-20.22-20.22c-2,0-3.93,.3-5.75,.84l-26.01-25.34c5.17-5.66,8.68-12.66,9.94-20.36H1267.58Z"/><g><path class="cls-2" d="M431.78,16.26h-16.4v122.18h-13.05V16.26h-16.4V2.73h45.85v13.53Z"/><path class="cls-2" d="M475.51,138.44h-34.21c-1.76,0-3.28-.74-4.54-2.22-1.26-1.48-1.9-2.98-1.9-4.5V26.2c0-1.58,.63-3.09,1.9-4.54,1.26-1.45,2.78-2.18,4.54-2.18h33.77v13.25h-27.07v23.85h27.07v13.53h-27.07v54.79h27.51v13.53Z"/><path class="cls-2" d="M530,119.7c0,5.93-2.12,10.85-6.35,14.76-4.23,3.91-9.58,5.87-16.05,5.87s-11.88-1.95-16.22-5.87c-4.35-3.91-6.52-8.83-6.52-14.76V38.12c0-5.93,2.17-10.85,6.52-14.76,4.35-3.91,9.76-5.87,16.22-5.87s11.81,1.96,16.05,5.87c4.23,3.91,6.35,8.83,6.35,14.76v9.46h-12.96v-9.46c0-1.33-.76-2.74-2.29-4.26-1.94-1.89-4.32-2.84-7.14-2.84s-5.2,.95-7.14,2.84c-1.59,1.52-2.38,2.94-2.38,4.26V119.79c0,1.33,.79,2.75,2.38,4.26,1.94,1.83,4.32,2.75,7.14,2.75s5.26-.92,7.14-2.76c1.53-1.46,2.29-2.89,2.29-4.29v-8.66h12.96v8.61Z"/><path class="cls-2" d="M584.58,138.44h-13.05v-24.42l-18.96-55.08v79.5h-13.14V19.48h12.61l19.49,56.5V19.48h13.05v118.96Z"/><path class="cls-2" d="M640.84,119.7c0,5.93-2.12,10.85-6.35,14.76-4.23,3.91-9.58,5.87-16.05,5.87s-11.88-1.95-16.22-5.87c-4.35-3.91-6.52-8.83-6.52-14.76V38.12c0-5.93,2.17-10.85,6.52-14.76,4.35-3.91,9.76-5.87,16.22-5.87s11.81,1.96,16.05,5.87c4.23,3.91,6.35,8.83,6.35,14.76V119.7Zm-12.96,.09V38.13c0-1.39-.76-2.84-2.29-4.36-1.94-1.83-4.32-2.75-7.14-2.75s-5.2,.95-7.14,2.84c-1.59,1.52-2.38,2.94-2.38,4.26V119.79c0,1.33,.79,2.75,2.38,4.26,1.94,1.83,4.32,2.75,7.14,2.75s5.26-.92,7.14-2.75c1.53-1.45,2.29-2.87,2.29-4.26Z"/><path class="cls-2" d="M692.07,138.44h-13.23l-2.73-19.5h-14.55l-2.47,19.5h-13.67l16.93-115.93c.47-3.34,2.65-5.02,6.53-5.02s5.79,1.67,6.26,5.02l16.93,115.93Zm-18.08-32.84l-5.2-41.26-5.29,41.26h10.49Z"/><path class="cls-2" d="M741.8,119.7c0,5.93-2.12,10.85-6.35,14.76-4.23,3.91-9.58,5.87-16.05,5.87s-11.87-1.95-16.22-5.87c-4.35-3.91-6.53-8.83-6.53-14.76V38.12c0-5.93,2.17-10.85,6.53-14.76,4.35-3.91,9.76-5.87,16.22-5.87s11.82,1.96,16.05,5.87c4.23,3.91,6.35,8.83,6.35,14.76v9.46h-12.96v-9.46c0-1.33-.76-2.74-2.29-4.26-1.94-1.89-4.32-2.84-7.14-2.84s-5.2,.95-7.14,2.84c-1.59,1.52-2.38,2.94-2.38,4.26V119.79c0,1.33,.79,2.75,2.38,4.26,1.94,1.83,4.32,2.75,7.14,2.75s5.26-.92,7.14-2.76c1.53-1.46,2.29-2.89,2.29-4.29v-8.66h12.96v8.61Z"/><path class="cls-2" d="M796.64,145.25h-15.08l-3.09-5.39c-1.88,.44-3.94,.66-6.17,.66-6.47,0-11.9-1.97-16.31-5.92-4.41-3.94-6.61-8.88-6.61-14.81V38.22c0-5.93,2.21-10.87,6.61-14.81,4.41-3.94,9.85-5.91,16.31-5.91s11.82,1.96,16.05,5.87c4.23,3.91,6.35,8.87,6.35,14.86V119.8c0,5.3-1.47,9.69-4.41,13.15l6.35,12.3Zm-14.9-25.46V38.22c0-1.45-.79-2.93-2.38-4.45-1.88-1.95-4.23-2.93-7.05-2.93s-5.2,.98-7.14,2.93c-1.59,1.58-2.38,3.06-2.38,4.45V119.8c0,1.39,.79,2.84,2.38,4.35,1.94,1.89,4.32,2.84,7.14,2.84s5.2-.95,7.14-2.84c1.53-1.51,2.29-2.96,2.29-4.35Z"/><path class="cls-2" d="M850.87,119.7c0,5.93-2.12,10.85-6.35,14.76-4.23,3.91-9.55,5.87-15.96,5.87s-11.89-1.95-16.27-5.87c-4.38-3.91-6.57-8.83-6.57-14.76V19.48h13.23V119.79c0,1.33,.79,2.75,2.38,4.26,1.94,1.83,4.35,2.75,7.23,2.75s5.17-.92,7.05-2.75c1.53-1.45,2.29-2.87,2.29-4.26V19.48h12.96V119.7Z"/><path class="cls-2" d="M876.18,138.44h-13.14V19.48h13.14v118.96Z"/><path class="cls-2" d="M929.96,118.75c0,6.18-1.88,11.26-5.64,15.24-4,4.23-9.58,6.34-16.75,6.34-6.47,0-11.88-1.95-16.22-5.87-4.35-3.91-6.52-8.83-6.52-14.76v-8.61h13.14v8.66c0,1.33,.79,2.76,2.38,4.29,1.94,1.84,4.35,2.76,7.23,2.76,3.12,0,5.55-1.04,7.32-3.13,1.35-1.51,2.03-3.12,2.03-4.83,0-7.26-1.65-14.27-4.94-21.03-1.88-3.85-5.48-9.41-10.8-16.67-5.32-7.26-9.04-13.1-11.15-17.52-3.47-7.32-5.2-15.5-5.2-24.53,0-6.06,2-11.11,6-15.16,4.23-4.29,9.82-6.44,16.75-6.44,6.41,0,11.74,1.96,16,5.87,4.26,3.91,6.39,8.83,6.39,14.76v9.46h-13.05v-9.46c0-1.33-.76-2.74-2.29-4.26-1.88-1.89-4.23-2.84-7.05-2.84-3.06,0-5.53,1.04-7.41,3.12-1.47,1.7-2.2,3.35-2.2,4.92,0,6.56,1.59,12.97,4.76,19.21,1.88,3.72,5.48,9.17,10.8,16.32,5.32,7.16,9.04,13.14,11.15,17.93,3.53,7.89,5.29,16.62,5.29,26.21Z"/><path class="cls-2" d="M973.7,32.73h-13.67v105.71h-13.4V32.73h-13.75v-13.25h40.82v13.25Z"/><path class="cls-2" d="M993.54,138.44h-13.14V19.48h13.14v118.96Z"/><path class="cls-2" d="M1018.66,138.44h-13.23v-13.91h13.23v13.91Z"/><path class="cls-2" d="M1073.86,119.7c0,5.93-2.12,10.85-6.35,14.76-4.23,3.91-9.58,5.87-16.05,5.87s-11.87-1.95-16.22-5.87c-4.35-3.91-6.53-8.83-6.53-14.76V38.12c0-5.93,2.17-10.85,6.53-14.76,4.35-3.91,9.76-5.87,16.22-5.87s11.82,1.96,16.05,5.87c4.23,3.91,6.35,8.83,6.35,14.76v9.46h-12.96v-9.46c0-1.33-.76-2.74-2.29-4.26-1.94-1.89-4.32-2.84-7.14-2.84s-5.2,.95-7.14,2.84c-1.59,1.52-2.38,2.94-2.38,4.26V119.79c0,1.33,.79,2.75,2.38,4.26,1.94,1.83,4.32,2.75,7.14,2.75s5.26-.92,7.14-2.76c1.53-1.46,2.29-2.89,2.29-4.29v-8.66h12.96v8.61Z"/><path class="cls-2" d="M1126.59,119.7c0,5.93-2.12,10.85-6.35,14.76-4.23,3.91-9.58,5.87-16.05,5.87s-11.87-1.95-16.22-5.87c-4.35-3.91-6.53-8.83-6.53-14.76V38.12c0-5.93,2.17-10.85,6.53-14.76,4.35-3.91,9.76-5.87,16.22-5.87s11.82,1.96,16.05,5.87c4.23,3.91,6.35,8.83,6.35,14.76V119.7Zm-12.96,.09V38.13c0-1.39-.76-2.84-2.29-4.36-1.94-1.83-4.32-2.75-7.14-2.75s-5.2,.95-7.14,2.84c-1.59,1.52-2.38,2.94-2.38,4.26V119.79c0,1.33,.79,2.75,2.38,4.26,1.94,1.83,4.32,2.75,7.14,2.75s5.26-.92,7.14-2.75c1.53-1.45,2.29-2.87,2.29-4.26Z"/><path class="cls-2" d="M1191.4,138.44h-13.23V70.21c-1.18,4.86-2.79,11.11-4.85,18.74-2.06,6.56-5,9.84-8.82,9.84-3.35,0-5.44-1.45-6.26-4.35l-7.32-24.98v68.99h-13.14V24.21c0-1.51,.63-3.01,1.9-4.5,1.26-1.48,2.78-2.22,4.54-2.22,3.41,0,5.5,1.39,6.26,4.16l14.02,49.5,14.11-49.5c.82-2.78,2.85-4.16,6.08-4.16,1.82,0,3.39,.73,4.72,2.18,1.32,1.45,1.98,2.97,1.98,4.54v114.23Z"/></g><g><path class="cls-4" d="M240.27,225.85h-34.03v-34.03h34.03v34.03Zm-4.87-4.87v-24.3h-24.3v24.3h24.3Z"/><path class="cls-4" d="M276.73,225.85h-34.03v-34.03h34.03v4.87h-29.17v9.73h29.17v4.87h-29.17v9.71h29.17v4.87Z"/><path class="cls-4" d="M313.18,204.95l-17.02,20.91-17.02-20.91v-13.12h4.87v11.44l12.15,14.81,12.15-15.02v-11.23h4.87v13.12Z"/><path class="cls-4" d="M349.63,225.85h-34.03v-34.03h34.03v4.87h-29.17v9.73h29.17v4.87h-29.17v9.71h29.17v4.87Z"/><path class="cls-4" d="M386.09,225.85h-34.03v-34.03h4.87v29.17h29.17v4.87Z"/><path class="cls-4" d="M422.54,225.85h-34.03v-34.03h34.03v34.03Zm-4.87-4.87v-24.3h-24.3v24.3h24.3Z"/><path class="cls-4" d="M458.99,211.28h-29.17v14.57h-4.87v-34.03h34.03v19.46Zm-4.87-4.87v-9.73h-24.3v9.73h24.3Z"/><path class="cls-4" d="M495.45,225.85h-34.03v-34.03h34.03v4.87h-29.17v9.73h29.17v4.87h-29.17v9.71h29.17v4.87Z"/><path class="cls-4" d="M531.9,225.85h-34.03v-34.03h34.03v34.03Zm-4.87-4.87v-24.3h-24.3v24.3h24.3Z"/><path class="cls-4" d="M587.79,225.85h-34.03v-34.03h29.17v14.6h4.87v19.44Zm-9.73-19.44v-9.73h-19.44v9.73h19.44Zm4.87,14.57v-9.71h-24.3v9.71h24.3Z"/><path class="cls-4" d="M624.25,225.85h-34.03v-4.87h29.17v-9.71h-29.17v-19.46h4.87v14.6h24.3v-14.6h4.87v34.03Z"/><path class="cls-4" d="M680.14,225.85h-4.87v-14.57h-24.3v14.57h-4.87v-34.03h34.03v34.03Zm-4.87-19.44v-9.73h-24.3v9.73h24.3Z"/><path class="cls-4" d="M716.59,225.85h-6.86l-14.6-14.57h-7.71v14.57h-4.87v-34.03h34.03v19.46h-14.6l14.6,14.57Zm-4.87-19.44v-9.73h-24.3v9.73h24.3Z"/><path class="cls-4" d="M753.04,196.69h-14.6v29.17h-4.87v-29.17h-14.57v-4.87h34.03v4.87Z"/><path class="cls-4" d="M789.5,225.85h-34.03v-34.03h34.03v4.87h-29.17v9.73h29.17v4.87h-29.17v9.71h29.17v4.87Z"/><path class="cls-4" d="M825.95,225.85h-34.03v-4.87h14.57v-24.3h-14.57v-4.87h34.03v4.87h-14.6v24.3h14.6v4.87Z"/><path class="cls-4" d="M862.4,225.85h-4.87v-29.17h-24.3v29.17h-4.87v-34.03h34.03v34.03Z"/><path class="cls-4" d="M898.86,211.28h-29.17v14.57h-4.87v-34.03h34.03v4.87h-29.17v9.73h29.17v4.87Z"/><path class="cls-4" d="M935.31,225.85h-34.03v-34.03h34.03v34.03Zm-4.87-4.87v-24.3h-24.3v24.3h24.3Z"/><path class="cls-4" d="M971.76,225.85h-6.86l-14.6-14.57h-7.71v14.57h-4.87v-34.03h34.03v19.46h-14.6l14.6,14.57Zm-4.87-19.44v-9.73h-24.3v9.73h24.3Z"/><path class="cls-4" d="M1017.92,225.85h-4.87v-29.17h-14.57v29.17h-4.87v-29.17h-14.57v29.17h-4.87v-34.03h43.74v34.03Z"/><path class="cls-4" d="M1054.4,225.85h-4.87v-14.57h-24.3v14.57h-4.87v-34.03h34.03v34.03Zm-4.87-19.44v-9.73h-24.3v9.73h24.3Z"/><path class="cls-4" d="M1090.86,196.69h-14.6v29.17h-4.87v-29.17h-14.57v-4.87h34.03v4.87Z"/><path class="cls-4" d="M1127.31,225.85h-34.03v-4.87h14.57v-24.3h-14.57v-4.87h34.03v4.87h-14.6v24.3h14.6v4.87Z"/><path class="cls-4" d="M1163.76,225.85h-34.03v-34.03h34.03v4.87h-29.17v24.3h29.17v4.87Z"/><path class="cls-4" d="M1200.22,225.85h-4.87v-14.57h-24.3v14.57h-4.87v-34.03h34.03v34.03Zm-4.87-19.44v-9.73h-24.3v9.73h24.3Z"/></g><path class="cls-4" d="M1268.71,29.75c0,16.87-13.24,30.11-30.47,30.11s-30.66-13.24-30.66-30.11,13.6-29.75,30.66-29.75,30.47,13.24,30.47,29.75Zm-53.51,0c0,13.24,9.8,23.76,23.22,23.76s22.67-10.52,22.67-23.58-9.61-23.94-22.86-23.94-23.04,10.7-23.04,23.76Zm18.32,15.6h-6.89V15.6c2.72-.54,6.53-.91,11.43-.91,5.62,0,8.16,.91,10.34,2.18,1.63,1.27,2.9,3.63,2.9,6.53,0,3.27-2.54,5.8-6.17,6.89v.36c2.9,1.09,4.54,3.27,5.44,7.26,.91,4.54,1.45,6.35,2.18,7.44h-7.44c-.91-1.09-1.45-3.81-2.36-7.26-.54-3.27-2.36-4.72-6.17-4.72h-3.27v11.97Zm.18-16.87h3.26c3.81,0,6.89-1.27,6.89-4.35,0-2.72-2-4.54-6.35-4.54-1.81,0-3.08,.18-3.81,.36v8.53Z"/></svg>